<svg xmlns="http://www.w3.org/2000/svg" version="1.1" xmlns:xlink="http://www.w3.org/1999/xlink" xmlns:svgjs="http://svgjs.dev/svgjs" viewBox="0 0 2400 800"><defs><linearGradient x1="50%" y1="0%" x2="50%" y2="100%" id="sssurf-grad"><stop stop-color="hsl(208, 77%, 50%)" stop-opacity="1" offset="0%"></stop><stop stop-color="hsl(208, 74%, 93%)" stop-opacity="1" offset="100%"></stop></linearGradient></defs><g fill="url(#sssurf-grad)" transform="matrix(1,0,0,1,0,-95.4715576171875)"><path d="M 0 343.42480220191527 Q 450 568.2006859124467 600 318.5766480116862 Q 1050 525.8722387882051 1200 310.9431107878296 Q 1650 641.1015968564335 1800 311.5134812637214 Q 2250 620.8632824012902 2400 332.661952148608 L 2400 800 L 0 800 L 0 329.7181945606843 Z" transform="matrix(1,0,0,1,0,35)" opacity="0.05"></path><path d="M 0 343.42480220191527 Q 450 568.2006859124467 600 318.5766480116862 Q 1050 525.8722387882051 1200 310.9431107878296 Q 1650 641.1015968564335 1800 311.5134812637214 Q 2250 620.8632824012902 2400 332.661952148608 L 2400 800 L 0 800 L 0 329.7181945606843 Z" transform="matrix(1,0,0,1,0,70)" opacity="0.21"></path><path d="M 0 343.42480220191527 Q 450 568.2006859124467 600 318.5766480116862 Q 1050 525.8722387882051 1200 310.9431107878296 Q 1650 641.1015968564335 1800 311.5134812637214 Q 2250 620.8632824012902 2400 332.661952148608 L 2400 800 L 0 800 L 0 329.7181945606843 Z" transform="matrix(1,0,0,1,0,105)" opacity="0.37"></path><path d="M 0 343.42480220191527 Q 450 568.2006859124467 600 318.5766480116862 Q 1050 525.8722387882051 1200 310.9431107878296 Q 1650 641.1015968564335 1800 311.5134812637214 Q 2250 620.8632824012902 2400 332.661952148608 L 2400 800 L 0 800 L 0 329.7181945606843 Z" transform="matrix(1,0,0,1,0,140)" opacity="0.53"></path><path d="M 0 343.42480220191527 Q 450 568.2006859124467 600 318.5766480116862 Q 1050 525.8722387882051 1200 310.9431107878296 Q 1650 641.1015968564335 1800 311.5134812637214 Q 2250 620.8632824012902 2400 332.661952148608 L 2400 800 L 0 800 L 0 329.7181945606843 Z" transform="matrix(1,0,0,1,0,175)" opacity="0.68"></path><path d="M 0 343.42480220191527 Q 450 568.2006859124467 600 318.5766480116862 Q 1050 525.8722387882051 1200 310.9431107878296 Q 1650 641.1015968564335 1800 311.5134812637214 Q 2250 620.8632824012902 2400 332.661952148608 L 2400 800 L 0 800 L 0 329.7181945606843 Z" transform="matrix(1,0,0,1,0,210)" opacity="0.84"></path><path d="M 0 343.42480220191527 Q 450 568.2006859124467 600 318.5766480116862 Q 1050 525.8722387882051 1200 310.9431107878296 Q 1650 641.1015968564335 1800 311.5134812637214 Q 2250 620.8632824012902 2400 332.661952148608 L 2400 800 L 0 800 L 0 329.7181945606843 Z" transform="matrix(1,0,0,1,0,245)" opacity="1"></path></g></svg>