<?xml version="1.0" standalone="no"?>
<svg xmlns:xlink="http://www.w3.org/1999/xlink" id="wave" style="transform:rotate(0deg); transition: 0.3s" viewBox="0 0 1440 490" version="1.1" xmlns="http://www.w3.org/2000/svg"><defs><linearGradient id="sw-gradient-0" x1="0" x2="0" y1="1" y2="0"><stop stop-color="rgba(175.301, 62, 243, 1)" offset="0%"/><stop stop-color="rgba(11, 255, 255, 1)" offset="100%"/></linearGradient></defs><path style="transform:translate(0, 0px); opacity:1" fill="url(#sw-gradient-0)" d="M0,294L48,261.3C96,229,192,163,288,122.5C384,82,480,65,576,122.5C672,180,768,310,864,367.5C960,425,1056,408,1152,383.8C1248,359,1344,327,1440,261.3C1536,196,1632,98,1728,73.5C1824,49,1920,98,2016,122.5C2112,147,2208,147,2304,155.2C2400,163,2496,180,2592,220.5C2688,261,2784,327,2880,367.5C2976,408,3072,425,3168,400.2C3264,376,3360,310,3456,277.7C3552,245,3648,245,3744,228.7C3840,212,3936,180,4032,179.7C4128,180,4224,212,4320,204.2C4416,196,4512,147,4608,138.8C4704,131,4800,163,4896,212.3C4992,261,5088,327,5184,326.7C5280,327,5376,261,5472,212.3C5568,163,5664,131,5760,114.3C5856,98,5952,98,6048,81.7C6144,65,6240,33,6336,49C6432,65,6528,131,6624,204.2C6720,278,6816,359,6864,400.2L6912,441L6912,490L6864,490C6816,490,6720,490,6624,490C6528,490,6432,490,6336,490C6240,490,6144,490,6048,490C5952,490,5856,490,5760,490C5664,490,5568,490,5472,490C5376,490,5280,490,5184,490C5088,490,4992,490,4896,490C4800,490,4704,490,4608,490C4512,490,4416,490,4320,490C4224,490,4128,490,4032,490C3936,490,3840,490,3744,490C3648,490,3552,490,3456,490C3360,490,3264,490,3168,490C3072,490,2976,490,2880,490C2784,490,2688,490,2592,490C2496,490,2400,490,2304,490C2208,490,2112,490,2016,490C1920,490,1824,490,1728,490C1632,490,1536,490,1440,490C1344,490,1248,490,1152,490C1056,490,960,490,864,490C768,490,672,490,576,490C480,490,384,490,288,490C192,490,96,490,48,490L0,490Z"/></svg>